<?xml version="1.0" encoding="utf-8"?>
<svg width="800px" height="800px" viewBox="0 0 24 24" fill="none" xmlns="http://www.w3.org/2000/svg">
  <path opacity="0.5" fill-rule="evenodd" clip-rule="evenodd" d="M3.172 4.172C2 5.343 2 7.229 2 11v2c0 3.771 0 5.657 1.172 6.828C4.343 21 6.229 21 10 21h4c.084 0 .918 0 1 0V3c-.082 0-.916 0-1 0h-4c-3.771 0-5.657 0-6.828 1.172Z" fill="currentColor"/>
  <path d="M22 13v-2c0-3.771 0-5.657-1.172-6.828C19.854 3.197 17.636 3.033 15 3.006v17.988c2.636-.027 4.854-.191 5.828-1.166C22 18.657 22 16.771 22 13Z" fill="currentColor"/>
  <path d="M9.263 13.298a.75.75 0 0 1 .439.965l-1.5 4a.75.75 0 1 1-1.414-.528l1.5-4a.75.75 0 0 1 .975-.437Z" fill="currentColor"/>
  <path d="M6.53 13.47a.75.75 0 0 1 0 1.06L6.06 15l.47.47a.75.75 0 0 1-1.06 1.06l-1-1a.75.75 0 0 1 0-1.06l1-1a.75.75 0 0 1 1.06 0Z" fill="currentColor"/>
  <path d="M9.97 15.47a.75.75 0 0 1 1.06 0l1 1a.75.75 0 0 1 0 1.06l-1 1a.75.75 0 1 1-1.06-1.06L10.44 17l-.47-.47a.75.75 0 0 1 0-1.06Z" fill="currentColor"/>
</svg>
